<?xml version="1.0" encoding="utf-8"?>
<!-- Generator: Adobe Illustrator 23.0.1, SVG Export Plug-In . SVG Version: 6.00 Build 0)  -->
<svg version="1.1" id="Layer_1" xmlns="http://www.w3.org/2000/svg" xmlns:xlink="http://www.w3.org/1999/xlink" x="0px" y="0px"
	 viewBox="0 0 1063.1 259" style="enable-background:new 0 0 1063.1 259;" xml:space="preserve">
<style type="text/css">
	.st0{fill:none;stroke:#808080;stroke-miterlimit:10;}
	.st1{fill:#EE5586;}
	.st2{fill:#FFFFFF;stroke:#1697BF;stroke-width:2;stroke-linecap:round;stroke-linejoin:round;stroke-miterlimit:10;}
	.st3{fill:#76A9EA;}
	.st4{fill:#475993;}
	.st5{fill:url(#SVGID_1_);}
	.st6{fill:url(#SVGID_2_);}
	.st7{fill:url(#SVGID_3_);}
	.st8{fill:#68CEF5;}
	.st9{fill:none;stroke:#424A60;stroke-width:2.2;stroke-miterlimit:10;}
	.st10{fill:#424A60;}
	.st11{fill:#FFFFFF;stroke:#0DA5D3;stroke-miterlimit:10;}
</style>
<line class="st0" x1="897.9" y1="64.7" x2="897.6" y2="167.5"/>
<line class="st0" x1="897.6" y1="211.7" x2="39.4" y2="211.7"/>
<line class="st0" x1="897.6" y1="167.6" x2="897.6" y2="211.8"/>
<line class="st0" x1="787.6" y1="99" x2="897.6" y2="167.6"/>
<line class="st0" x1="40.2" y1="104" x2="40.2" y2="209.8"/>
<line class="st0" x1="1007.2" y1="99" x2="897.6" y2="167.6"/>
<circle id="svg-ico" class="st1" cx="897.6" cy="211.8" r="3"/>
<circle class="st1" cx="40.2" cy="211.8" r="3"/>
<g>
	<path id="svg-concept" class="st2" d="M783.2,99c0,2.2,1.8,4,4,4s4-1.8,4-4s-1.8-4-4-4S783.2,96.8,783.2,99z"/>
	
		<animateMotion  accumulate="none" additive="replace" begin="start3.end" calcMode="paced" dur="2s" fill="remove" id="start4" path="M105 66 105 66 0 0" restart="always">
		</animateMotion>
</g>
<g>
	<path class="st2" d="M893.6,65.9c0,2.2,1.8,4,4,4s4-1.8,4-4s-1.8-4-4-4C895.4,61.9,893.6,63.7,893.6,65.9z"/>
	
		<animateMotion  accumulate="none" additive="replace" begin="start3.end" calcMode="paced" dur="2s" fill="remove" path="M0 100 0 100 0 0 " restart="always">
		</animateMotion>
</g>
<g>
	<path class="st2" d="M1003.5,99c0,2.2,1.8,4,4,4s4-1.8,4-4s-1.8-4-4-4S1003.5,96.8,1003.5,99z"/>
	
		<animateMotion  accumulate="none" additive="replace" begin="start3.end" calcMode="paced" dur="2s" fill="remove" path="M-105 66 -105 66 0 0" restart="always">
		</animateMotion>
</g>
<g>
	<path class="st2" d="M893.3,211.8c0,2.2,1.8,4,4,4s4-1.8,4-4s-1.8-4-4-4S893.3,209.6,893.3,211.8z"/>
	
		<animateMotion  accumulate="none" additive="replace" begin="start1.end" calcMode="paced" dur="3s" fill="remove" id="start2" path="M-850 0 -165 0 0 0" restart="always">
		</animateMotion>
</g>
<g>
	<path class="st2" d="M36.2,99c0,2.2,1.8,4,4,4s4-1.8,4-4s-1.8-4-4-4S36.2,96.8,36.2,99z"/>
	
		<animateMotion  accumulate="none" additive="replace" begin="3s;start4.end" calcMode="paced" dur="1s" fill="remove" id="start1" path="M0 0 0 110 0 110" restart="always">
		</animateMotion>
</g>
<g>
	<path class="st2" d="M893.2,212c0,2.2,1.8,4,4,4s4-1.8,4-4s-1.8-4-4-4S893.2,209.8,893.2,212z"/>
	
		<animateMotion  accumulate="none" additive="replace" begin="start2.end" calcMode="paced" dur="0.5s" fill="remove" id="start3" path="M0 0 0 -40" restart="always">
		</animateMotion>
</g>
<g>
	<path class="st2" d="M36.2,99c0,2.2,1.8,4,4,4s4-1.8,4-4s-1.8-4-4-4S36.2,96.8,36.2,99z"/>
	<g>
		<path class="st2" d="M36.2,211c0,2.2,1.8,4,4,4s4-1.8,4-4s-1.8-4-4-4S36.2,208.8,36.2,211z"/>
	</g>
	<g>
		<path class="st2" d="M893.2,168c0,2.2,1.8,4,4,4s4-1.8,4-4s-1.8-4-4-4S893.2,165.8,893.2,168z"/>
	</g>
	<g>
		<path class="st2" d="M893.2,212c0,2.2,1.8,4,4,4s4-1.8,4-4s-1.8-4-4-4S893.2,209.8,893.2,212z"/>
	</g>
	<g>
		<path class="st2" d="M783.2,99c0,2.2,1.8,4,4,4s4-1.8,4-4s-1.8-4-4-4S783.2,96.8,783.2,99z"/>
	</g>
	<g>
		<path class="st2" d="M893.6,65.9c0,2.2,1.8,4,4,4s4-1.8,4-4s-1.8-4-4-4S893.6,63.7,893.6,65.9z"/>
	</g>
	<g>
		<path class="st2" d="M1003.5,99c0,2.2,1.8,4,4,4s4-1.8,4-4s-1.8-4-4-4S1003.5,96.8,1003.5,99z"/>
	</g>
</g>
<path class="st3" d="M1046,46.4c-1.3,0.6-2.6,1-3.9,1.3c1.5-1.4,2.6-3.2,3.2-5.2l0,0c0.2-0.6-0.4-1.1-0.9-0.8l0,0
	c-1.9,1.1-3.9,2-6,2.5c-0.1,0-0.2,0-0.4,0c-0.4,0-0.8-0.1-1.1-0.4c-2.3-2-5.2-3.1-8.2-3.1c-1.3,0-2.6,0.2-3.9,0.6
	c-4,1.2-7.1,4.5-8.1,8.6c-0.4,1.5-0.5,3.1-0.3,4.5c0,0.2-0.1,0.3-0.1,0.3c-0.1,0.1-0.2,0.2-0.3,0.2l0,0c-8.8-0.8-16.7-5-22.2-11.9
	l0,0c-0.3-0.3-0.8-0.3-1.1,0.1l0,0c-1.1,1.9-1.7,4-1.7,6.2c0,3.3,1.3,6.5,3.7,8.8c-1-0.2-1.9-0.6-2.8-1.1l0,0c-0.4-0.2-1,0.1-1,0.6
	l0,0c-0.1,5,2.8,9.4,7.2,11.4c-0.1,0-0.2,0-0.3,0c-0.7,0-1.4-0.1-2.1-0.2l0,0c-0.5-0.1-0.9,0.4-0.7,0.8l0,0c1.4,4.4,5.2,7.7,9.8,8.4
	c-3.8,2.5-8.2,3.9-12.8,3.9h-1.4c-0.4,0-0.8,0.3-0.9,0.7c-0.1,0.4,0.1,0.9,0.5,1.1c5.2,3,11,4.6,17,4.6c5.2,0,10.1-1,14.5-3.1
	c4.1-1.9,7.6-4.6,10.6-8c2.8-3.2,5-6.9,6.5-10.9c1.4-3.9,2.2-8,2.2-11.9v-0.2c0-0.6,0.3-1.2,0.8-1.6c1.9-1.5,3.5-3.4,4.9-5.4l0,0
	C1047.1,46.8,1046.6,46.2,1046,46.4L1046,46.4z"/>
<path class="st4" d="M799,33.7h-40.1c-4.1,0-7.4,3.3-7.4,7.4v40.1c0,4.1,3.3,7.4,7.4,7.4h19.8V69h-5.1c-0.7,0-1.2-0.5-1.2-1.2v-6.3
	c0-0.7,0.5-1.2,1.2-1.2h5.1v-6.1c0-7.1,4.3-10.9,10.6-10.9h5.2c0.7,0,1.2,0.5,1.2,1.2v5.3c0,0.7-0.5,1.2-1.2,1.2h-3.2
	c-3.4,0-4.1,1.6-4.1,4v5.3h7.6c0.7,0,1.3,0.6,1.2,1.3l-0.7,6.3c-0.1,0.6-0.6,1.1-1.2,1.1h-6.8v19.6H799c4.1,0,7.4-3.3,7.4-7.4V41
	C806.3,37,803,33.7,799,33.7z"/>
<g>
	
		<linearGradient id="SVGID_1_" gradientUnits="userSpaceOnUse" x1="897.05" y1="-567.7" x2="897.05" y2="-516.0615" gradientTransform="matrix(1 0 0 -1 0 -510)">
		<stop  offset="0" style="stop-color:#E09B3D"/>
		<stop  offset="0.3" style="stop-color:#C74C4D"/>
		<stop  offset="0.6" style="stop-color:#C21975"/>
		<stop  offset="1" style="stop-color:#7024C4"/>
	</linearGradient>
	<path class="st5" d="M907.9,5.6h-21.7c-8.8,0-16,7-16,15.5v21.1c0,8.6,7.2,15.5,16,15.5h21.7c8.8,0,16-7,16-15.5v-21
		C923.9,12.6,916.7,5.6,907.9,5.6z M918.5,42.3c0,5.7-4.7,10.3-10.6,10.3h-21.7c-5.8,0-10.6-4.6-10.6-10.3V21.2
		c0-5.7,4.7-10.3,10.6-10.3h21.7c5.8,0,10.6,4.6,10.6,10.3V42.3L918.5,42.3z"/>
	
		<linearGradient id="SVGID_2_" gradientUnits="userSpaceOnUse" x1="897" y1="-567.6481" x2="897" y2="-516.0096" gradientTransform="matrix(1 0 0 -1 0 -510)">
		<stop  offset="0" style="stop-color:#E09B3D"/>
		<stop  offset="0.3" style="stop-color:#C74C4D"/>
		<stop  offset="0.6" style="stop-color:#C21975"/>
		<stop  offset="1" style="stop-color:#7024C4"/>
	</linearGradient>
	<path class="st6" d="M897,18.2c-7.7,0-13.9,6.1-13.9,13.5s6.2,13.5,13.9,13.5s13.9-6.1,13.9-13.5S904.7,18.2,897,18.2z M897,40
		c-4.7,0-8.5-3.7-8.5-8.2s3.8-8.2,8.5-8.2s8.5,3.7,8.5,8.2S901.7,40,897,40z"/>
	
		<linearGradient id="SVGID_3_" gradientUnits="userSpaceOnUse" x1="910.9" y1="-567.6481" x2="910.9" y2="-516.0096" gradientTransform="matrix(1 0 0 -1 0 -510)">
		<stop  offset="0" style="stop-color:#E09B3D"/>
		<stop  offset="0.3" style="stop-color:#C74C4D"/>
		<stop  offset="0.6" style="stop-color:#C21975"/>
		<stop  offset="1" style="stop-color:#7024C4"/>
	</linearGradient>
	<ellipse class="st7" cx="910.9" cy="18.3" rx="3.3" ry="3.2"/>
</g>
<circle class="st8" cx="22.7" cy="66.1" r="9"/>
<circle class="st8" cx="57.7" cy="85.6" r="9"/>
<circle class="st8" cx="57.7" cy="46.6" r="9"/>
<path class="st9" d="M22.5,63.8l31.9-17.7c2.3-1.3,5.2,0.4,5.2,3v35.5c0,2.6-2.8,4.3-5.2,3L22.5,69.9C20.1,68.6,20.1,65.2,22.5,63.8
	z"/>
<line class="st9" x1="20.7" y1="66.9" x2="20.7" y2="111.8"/>
<circle class="st10" cx="20.7" cy="111.8" r="1.1"/>
<circle class="st11" cx="37.9" cy="78.6" r="3.1">
<animateMotion  accumulate="none" additive="replace" begin="0" calcMode="paced" dur="5s" fill="remove" path="M0 0 -19 -12 -20 -13 22 -33 22 10 0 0" repeatCount="indefinite" restart="always">
	</animateMotion>
</circle>
</svg>
